<?xml version="1.0" encoding="UTF-8" standalone="no"?>
<svg xmlns="http://www.w3.org/2000/svg" width="65mm" height="93mm" viewBox="0 0 65 93" version="1.1">
    <g transform="translate(-16.5,1.5)">
        <g transform="matrix(1,0,-0.7,1,31.5,0)">
            <g fill="current" stroke="current" stroke-linejoin="round">
                <path d="M 0,0 10,10 V 0 Z"/>
                <path d="m 40,10 c 0,20 0,40 0,60 3.333333,0 6.666667,0 10,0 0,-16.666667 0,-33.333333 0,-50 -3.333333,-3.333333 -6.666667,-6.666667 -10,-10 z"/>
                <path d="m 60,30 c 0,13.333333 0,26.666667 0,40 3.333333,0 6.666667,0 10,0 0,-10 0,-20 0,-30 -3.333333,-3.333333 -6.666667,-6.666667 -10,-10 z"/>
                <path d="m 80,50 c 0,6.666667 0,13.333333 0,20 3.333333,0 6.666667,0 10,0 0,-3.333333 0,-6.666667 0,-10 -3.333333,-3.333333 -6.666667,-6.666667 -10,-10 z"/>
                <path d="m 20,0 c 0,10 0,20 0,30 3.333333,3.333333 6.666667,6.666667 10,10 0,-13.333333 0,-26.666667 0,-40 -3.333333,0 -6.666667,0 -10,0 z"/>
                <path d="m 50,80 c 0,3.333333 0,6.666667 0,10 20,0 40,0 60,0 -3.333333,-3.333333 -6.666667,-6.666667 -10,-10 -16.666667,0 -33.333333,0 -50,0 z"/>
            </g>
        </g>
    </g>
</svg>
